<?xml version="1.0" encoding="UTF-8"?>
<svg xmlns="http://www.w3.org/2000/svg" xmlns:xlink="http://www.w3.org/1999/xlink" width="20pt" height="20pt" viewBox="0 0 20 20" version="1.1">
<g id="surface1">
<path style=" stroke:none;fill-rule:nonzero;fill:rgb(25.882353%,52.156863%,95.686275%);fill-opacity:1;" d="M 3 0 L 17 0 C 18.65625 0 20 1.34375 20 3 L 20 17 C 20 18.65625 18.65625 20 17 20 L 3 20 C 1.34375 20 0 18.65625 0 17 L 0 3 C 0 1.34375 1.34375 0 3 0 Z M 3 0 "/>
<path style=" stroke:none;fill-rule:nonzero;fill:rgb(100%,100%,100%);fill-opacity:1;" d="M 8.320312 4.335938 L 4.140625 8.007812 L 6.835938 8.007812 C 7.03125 9.765625 8.4375 10.507812 9.882812 10.625 C 9.609375 11.328125 9.726562 11.679688 10.15625 12.148438 C 8.476562 12.1875 6.132812 13.164062 6.132812 14.765625 C 6.289062 16.523438 8.59375 16.875 9.726562 16.875 C 11.210938 16.914062 12.890625 16.132812 13.242188 14.765625 C 13.398438 13.398438 12.851562 12.65625 12.03125 11.992188 C 11.132812 11.289062 10.9375 10.898438 11.210938 10.429688 C 11.796875 9.765625 12.578125 9.375 12.734375 8.4375 C 12.8125 7.773438 12.65625 7.34375 12.5 6.757812 L 14.257812 5.273438 L 14.21875 5.898438 C 14.101562 5.976562 14.023438 6.132812 14.023438 6.25 L 14.023438 10.273438 C 14.101562 10.78125 14.882812 10.703125 14.921875 10.273438 L 14.921875 6.25 C 14.921875 6.132812 14.84375 5.976562 14.726562 5.9375 L 14.726562 4.960938 L 15.351562 4.335938 Z M 10.585938 9.84375 C 8.203125 10.234375 7.1875 6.445312 9.101562 5.976562 C 11.289062 5.546875 12.34375 9.335938 10.585938 9.84375 Z M 10.390625 12.695312 C 12.734375 13.203125 12.773438 15.15625 10.78125 15.742188 C 9.0625 16.09375 7.578125 15.585938 7.617188 14.570312 C 7.617188 13.59375 8.984375 12.695312 10.390625 12.695312 Z M 10.390625 12.695312 "/>
</g>
</svg>
