<?xml version="1.0" encoding="UTF-8"?>
<svg xmlns="http://www.w3.org/2000/svg" xmlns:xlink="http://www.w3.org/1999/xlink" width="20pt" height="20pt" viewBox="0 0 20 20" version="1.1">
<g id="surface1">
<path style=" stroke:none;fill-rule:nonzero;fill:rgb(0%,0%,0%);fill-opacity:1;" d="M 12.917969 18.917969 L 12.832031 18.917969 L 12.75 18.832031 L 12.75 16.25 C 12.75 15.667969 12.667969 15.167969 12.417969 14.75 C 14.332031 14.417969 16.417969 13.417969 16.417969 9.667969 C 16.417969 8.667969 16.082031 7.75 15.5 7 C 15.667969 6.5 15.75 5.582031 15.332031 4.417969 L 15.082031 4.167969 C 15.082031 4.167969 14.917969 4.082031 14.75 4.082031 C 14.25 4.082031 13.5 4.25 12.25 5.082031 C 11.582031 5 10.832031 4.832031 10 4.832031 C 9.167969 4.832031 8.417969 4.917969 7.667969 5.082031 C 6.5 4.332031 5.667969 4.167969 5.167969 4.167969 C 5 4.167969 4.917969 4.25 4.832031 4.25 C 4.75 4.25 4.582031 4.417969 4.582031 4.5 C 4.167969 5.667969 4.25 6.582031 4.417969 7.082031 C 3.832031 7.832031 3.5 8.75 3.5 9.75 C 3.5 13.417969 5.667969 14.417969 7.5 14.832031 C 7.417969 15 7.332031 15.25 7.25 15.5 C 7.082031 15.582031 6.832031 15.667969 6.5 15.667969 C 6.167969 15.667969 5.832031 15.582031 5.582031 15.332031 L 5.5 15.25 C 5.417969 15.167969 5.417969 15.082031 5.332031 15.082031 L 5.167969 14.917969 C 5.167969 14.832031 4.5 13.832031 3.332031 13.75 C 2.917969 13.75 2.582031 13.917969 2.5 14.167969 C 2.332031 14.582031 2.832031 14.917969 3.082031 15.082031 C 3.082031 15.082031 3.582031 15.332031 3.917969 16.25 C 4.082031 16.832031 4.832031 17.917969 6.582031 17.917969 L 7.167969 17.917969 L 7.167969 19.082031 L 7.082031 19.167969 C 7.082031 19.167969 7 19.167969 7.082031 19.167969 C 3.332031 17.667969 0.832031 14.167969 0.832031 10.25 C 0.832031 5.167969 4.917969 1.082031 10 1.082031 C 15.082031 1.082031 19.167969 5.167969 19.167969 10.25 C 19.167969 14.167969 16.667969 17.667969 12.917969 18.917969 Z M 12.917969 18.917969 "/>
</g>
</svg>
