<?xml version="1.0" encoding="UTF-8"?>
<svg xmlns="http://www.w3.org/2000/svg" xmlns:xlink="http://www.w3.org/1999/xlink" width="20pt" height="20pt" viewBox="0 0 20 20" version="1.1">
<g id="surface1">
<path style=" stroke:none;fill-rule:evenodd;fill:rgb(1.568627%,58.039216%,83.137255%);fill-opacity:1;" d="M 12.015625 15.808594 L 12.011719 16.398438 L 17.433594 16.398438 L 17.472656 16.359375 C 17.511719 16.316406 17.542969 15.453125 17.511719 15.328125 C 17.480469 15.210938 17.679688 15.21875 14.730469 15.21875 L 12.019531 15.21875 L 12.015625 15.808594 "/>
<path style=" stroke:none;fill-rule:evenodd;fill:rgb(32.941176%,14.117647%,48.627451%);fill-opacity:1;" d="M 13.328125 3.671875 C 13.292969 3.703125 13.292969 3.703125 13.332031 3.683594 C 13.355469 3.671875 13.378906 3.667969 13.386719 3.675781 C 13.394531 3.679688 13.398438 3.675781 13.398438 3.664062 C 13.398438 3.632812 13.375 3.632812 13.328125 3.671875 M 8.585938 3.730469 L 8.53125 3.78125 L 8.59375 3.738281 C 8.628906 3.710938 8.660156 3.691406 8.660156 3.6875 C 8.660156 3.671875 8.636719 3.683594 8.585938 3.730469 M 9.421875 3.703125 C 9.421875 3.707031 9.460938 3.746094 9.515625 3.789062 C 9.566406 3.832031 9.59375 3.847656 9.570312 3.820312 C 9.53125 3.777344 9.421875 3.691406 9.421875 3.703125 M 9.964844 3.828125 C 9.910156 3.867188 9.855469 3.910156 9.847656 3.921875 C 9.84375 3.933594 9.878906 3.910156 9.933594 3.871094 C 9.988281 3.832031 10.039062 3.804688 10.042969 3.8125 C 10.050781 3.816406 10.058594 3.808594 10.066406 3.789062 C 10.082031 3.75 10.085938 3.75 9.964844 3.828125 M 11.589844 3.792969 C 11.699219 3.902344 11.839844 4.019531 11.769531 3.941406 C 11.726562 3.894531 11.664062 3.839844 11.628906 3.816406 C 11.597656 3.792969 11.578125 3.78125 11.589844 3.792969 M 6.078125 3.867188 C 6.078125 3.875 6.105469 3.894531 6.140625 3.910156 C 6.171875 3.925781 6.199219 3.9375 6.199219 3.929688 C 6.199219 3.925781 6.171875 3.90625 6.140625 3.890625 C 6.105469 3.871094 6.078125 3.863281 6.078125 3.867188 M 17.421875 3.929688 C 17.421875 3.941406 17.433594 3.972656 17.449219 4 C 17.464844 4.027344 17.480469 4.039062 17.480469 4.03125 C 17.480469 4.019531 17.464844 3.988281 17.449219 3.960938 C 17.433594 3.933594 17.421875 3.917969 17.421875 3.929688 M 3.265625 3.992188 L 3.210938 4.042969 L 3.273438 3.996094 C 3.3125 3.972656 3.339844 3.949219 3.339844 3.945312 C 3.339844 3.929688 3.316406 3.945312 3.265625 3.992188 M 9.761719 3.988281 C 9.734375 4.015625 9.703125 4.03125 9.6875 4.027344 C 9.671875 4.019531 9.660156 4.019531 9.660156 4.027344 C 9.660156 4.0625 9.726562 4.046875 9.769531 4 C 9.800781 3.964844 9.824219 3.941406 9.816406 3.941406 C 9.8125 3.941406 9.785156 3.960938 9.761719 3.988281 M 6.351562 4.03125 C 6.480469 4.160156 6.621094 4.277344 6.539062 4.191406 C 6.492188 4.140625 6.421875 4.078125 6.390625 4.054688 C 6.355469 4.03125 6.339844 4.023438 6.351562 4.03125 M 3.058594 4.175781 L 2.929688 4.308594 L 3.066406 4.179688 C 3.140625 4.109375 3.199219 4.046875 3.199219 4.046875 C 3.199219 4.03125 3.179688 4.050781 3.058594 4.175781 M 11.929688 4.175781 C 11.945312 4.210938 11.953125 4.242188 11.945312 4.246094 C 11.9375 4.253906 11.945312 4.261719 11.957031 4.261719 C 11.972656 4.261719 11.976562 4.269531 11.96875 4.28125 C 11.964844 4.289062 11.96875 4.300781 11.980469 4.300781 C 11.992188 4.300781 12 4.296875 12 4.289062 C 12 4.269531 11.917969 4.121094 11.910156 4.121094 C 11.902344 4.121094 11.914062 4.144531 11.929688 4.175781 M 12.984375 4.269531 C 12.984375 4.3125 12.988281 4.328125 12.996094 4.304688 C 13 4.28125 13 4.242188 12.992188 4.226562 C 12.988281 4.207031 12.984375 4.226562 12.984375 4.269531 M 2.75 4.601562 C 2.71875 4.65625 2.699219 4.707031 2.703125 4.710938 C 2.707031 4.714844 2.738281 4.667969 2.765625 4.609375 C 2.796875 4.550781 2.816406 4.5 2.808594 4.5 C 2.804688 4.5 2.777344 4.546875 2.75 4.601562 M 13.039062 4.550781 C 13.039062 4.574219 13.117188 4.699219 13.128906 4.699219 C 13.132812 4.699219 13.121094 4.667969 13.09375 4.625 C 13.042969 4.53125 13.039062 4.527344 13.039062 4.550781 M 17.320312 4.753906 L 17.25 4.828125 L 17.324219 4.761719 C 17.394531 4.695312 17.410156 4.679688 17.394531 4.679688 C 17.390625 4.679688 17.355469 4.714844 17.320312 4.753906 M 13.183594 4.769531 C 13.203125 4.792969 13.246094 4.828125 13.285156 4.847656 L 13.351562 4.882812 L 13.300781 4.84375 C 13.273438 4.820312 13.242188 4.800781 13.234375 4.800781 C 13.226562 4.800781 13.222656 4.789062 13.230469 4.773438 C 13.238281 4.761719 13.238281 4.757812 13.230469 4.765625 C 13.222656 4.773438 13.199219 4.769531 13.183594 4.753906 C 13.15625 4.734375 13.15625 4.738281 13.183594 4.769531 M 17.21875 4.816406 C 17.21875 4.828125 17.195312 4.851562 17.164062 4.867188 C 17.132812 4.886719 17.121094 4.898438 17.132812 4.898438 C 17.167969 4.902344 17.253906 4.824219 17.234375 4.808594 C 17.226562 4.800781 17.21875 4.804688 17.21875 4.816406 M 4.3125 5.003906 C 4.25 5.066406 4.25 5.066406 4.308594 5.019531 C 4.34375 4.992188 4.378906 4.964844 4.390625 4.957031 C 4.398438 4.945312 4.402344 4.941406 4.394531 4.941406 C 4.386719 4.941406 4.351562 4.96875 4.3125 5.003906 M 5.160156 4.964844 C 5.160156 4.96875 5.1875 5 5.226562 5.03125 L 5.289062 5.089844 L 5.230469 5.023438 C 5.175781 4.964844 5.160156 4.949219 5.160156 4.964844 M 14.488281 9.019531 C 14.488281 11.257812 14.492188 12.175781 14.496094 11.054688 C 14.496094 9.9375 14.496094 8.105469 14.496094 6.984375 C 14.492188 5.867188 14.488281 6.78125 14.488281 9.019531 M 16.070312 8.949219 C 16.070312 11.148438 16.070312 12.046875 16.074219 10.945312 C 16.078125 9.839844 16.078125 8.039062 16.074219 6.945312 C 16.070312 5.847656 16.070312 6.75 16.070312 8.949219 M 6.878906 5.15625 C 6.882812 5.199219 6.917969 5.226562 6.917969 5.183594 C 6.917969 5.160156 6.910156 5.140625 6.898438 5.140625 C 6.890625 5.140625 6.878906 5.148438 6.878906 5.15625 M 9.796875 5.261719 C 9.789062 5.292969 9.792969 5.328125 9.804688 5.332031 C 9.8125 5.335938 9.820312 5.308594 9.820312 5.269531 C 9.820312 5.183594 9.808594 5.179688 9.796875 5.261719 M 5.40625 5.460938 C 5.40625 5.5 5.410156 5.515625 5.414062 5.496094 C 5.417969 5.476562 5.417969 5.445312 5.414062 5.425781 C 5.410156 5.40625 5.40625 5.421875 5.40625 5.460938 M 2.488281 5.960938 C 2.488281 6.140625 2.492188 6.214844 2.496094 6.125 C 2.5 6.035156 2.5 5.886719 2.496094 5.796875 C 2.492188 5.703125 2.488281 5.777344 2.488281 5.960938 M 4.066406 5.828125 C 4.066406 5.941406 4.070312 5.984375 4.074219 5.925781 C 4.078125 5.867188 4.078125 5.777344 4.074219 5.722656 C 4.070312 5.671875 4.066406 5.71875 4.066406 5.828125 M 4.199219 6.546875 C 4.199219 6.570312 4.257812 6.679688 4.269531 6.679688 C 4.277344 6.679688 4.265625 6.652344 4.246094 6.613281 C 4.210938 6.542969 4.199219 6.527344 4.199219 6.546875 M 2.722656 7.230469 C 2.722656 7.242188 2.734375 7.273438 2.75 7.300781 C 2.765625 7.328125 2.777344 7.339844 2.777344 7.328125 C 2.777344 7.320312 2.765625 7.289062 2.75 7.261719 C 2.734375 7.234375 2.722656 7.21875 2.722656 7.230469 M 2.890625 7.578125 C 2.90625 7.613281 2.925781 7.640625 2.929688 7.640625 C 2.9375 7.640625 2.925781 7.613281 2.910156 7.578125 C 2.894531 7.546875 2.875 7.519531 2.867188 7.519531 C 2.863281 7.519531 2.871094 7.546875 2.890625 7.578125 M 5.011719 7.660156 C 5.0625 7.714844 5.113281 7.761719 5.117188 7.761719 C 5.125 7.761719 5.085938 7.714844 5.03125 7.660156 C 4.976562 7.605469 4.925781 7.558594 4.921875 7.558594 C 4.914062 7.558594 4.957031 7.605469 5.011719 7.660156 M 5.339844 8.011719 C 5.445312 8.113281 5.535156 8.199219 5.539062 8.199219 C 5.542969 8.199219 5.464844 8.113281 5.359375 8.011719 C 5.257812 7.90625 5.167969 7.820312 5.160156 7.820312 C 5.15625 7.820312 5.234375 7.90625 5.339844 8.011719 M 3.339844 8.226562 C 3.339844 8.230469 3.371094 8.257812 3.40625 8.292969 L 3.46875 8.351562 L 3.410156 8.285156 C 3.355469 8.222656 3.339844 8.210938 3.339844 8.226562 M 5.523438 8.226562 C 5.527344 8.226562 5.605469 8.300781 5.699219 8.390625 L 5.871094 8.550781 L 5.710938 8.386719 C 5.621094 8.292969 5.542969 8.21875 5.53125 8.21875 C 5.523438 8.21875 5.515625 8.222656 5.523438 8.226562 M 3.460938 8.367188 C 3.460938 8.371094 3.488281 8.398438 3.523438 8.429688 L 3.589844 8.488281 L 3.53125 8.425781 C 3.476562 8.363281 3.460938 8.351562 3.460938 8.367188 M 4.109375 9.039062 C 4.386719 9.316406 4.613281 9.539062 4.621094 9.539062 C 4.625 9.539062 4.40625 9.316406 4.128906 9.039062 C 3.855469 8.765625 3.625 8.539062 3.621094 8.539062 C 3.613281 8.539062 3.835938 8.765625 4.109375 9.039062 M 5.84375 8.566406 C 5.847656 8.566406 5.890625 8.605469 5.941406 8.648438 L 6.03125 8.730469 L 5.949219 8.644531 C 5.90625 8.597656 5.863281 8.558594 5.851562 8.558594 C 5.84375 8.558594 5.835938 8.5625 5.84375 8.566406 M 6.039062 8.765625 C 6.039062 8.769531 6.070312 8.800781 6.105469 8.832031 L 6.171875 8.890625 L 6.109375 8.824219 C 6.054688 8.765625 6.039062 8.75 6.039062 8.765625 M 4.757812 9.710938 C 4.972656 9.941406 5.023438 9.988281 4.90625 9.851562 C 4.847656 9.785156 4.761719 9.691406 4.707031 9.640625 C 4.652344 9.589844 4.675781 9.621094 4.757812 9.710938 M 6.734375 9.730469 C 6.761719 9.789062 6.792969 9.835938 6.796875 9.832031 C 6.804688 9.824219 6.703125 9.621094 6.691406 9.621094 C 6.683594 9.621094 6.703125 9.667969 6.734375 9.730469 M 3.1875 9.914062 C 3.203125 9.929688 3.363281 9.921875 3.378906 9.90625 C 3.382812 9.902344 3.339844 9.898438 3.28125 9.898438 C 3.222656 9.898438 3.179688 9.90625 3.1875 9.914062 M 2.867188 10.011719 C 2.832031 10.042969 2.832031 10.042969 2.871094 10.023438 C 2.894531 10.011719 2.921875 10.007812 2.925781 10.015625 C 2.933594 10.019531 2.941406 10.015625 2.941406 10.003906 C 2.941406 9.972656 2.914062 9.972656 2.867188 10.011719 M 3.828125 10.140625 C 3.871094 10.183594 3.914062 10.21875 3.917969 10.21875 C 3.921875 10.21875 3.894531 10.183594 3.851562 10.140625 C 3.808594 10.097656 3.765625 10.058594 3.761719 10.058594 C 3.757812 10.058594 3.785156 10.097656 3.828125 10.140625 M 2.667969 10.175781 C 2.601562 10.257812 2.53125 10.378906 2.546875 10.390625 C 2.550781 10.398438 2.570312 10.363281 2.589844 10.320312 C 2.609375 10.273438 2.648438 10.21875 2.675781 10.199219 C 2.703125 10.175781 2.71875 10.160156 2.710938 10.160156 C 2.703125 10.160156 2.707031 10.148438 2.71875 10.128906 C 2.734375 10.113281 2.742188 10.101562 2.734375 10.101562 C 2.730469 10.101562 2.699219 10.132812 2.667969 10.175781 M 6.953125 10.375 C 6.949219 10.382812 6.953125 10.40625 6.960938 10.429688 C 6.976562 10.464844 6.976562 10.464844 6.980469 10.414062 C 6.980469 10.359375 6.96875 10.34375 6.953125 10.375 M 2.488281 11.328125 C 2.488281 11.757812 2.492188 11.933594 2.496094 11.714844 C 2.5 11.496094 2.5 11.144531 2.496094 10.933594 C 2.492188 10.722656 2.488281 10.902344 2.488281 11.328125 M 4.070312 11.140625 C 4.070312 11.429688 4.070312 11.550781 4.074219 11.40625 C 4.078125 11.257812 4.078125 11.019531 4.074219 10.875 C 4.070312 10.730469 4.070312 10.847656 4.070312 11.140625 M 5.503906 10.960938 C 5.503906 11 5.507812 11.015625 5.515625 10.996094 C 5.519531 10.976562 5.519531 10.945312 5.515625 10.925781 C 5.507812 10.90625 5.503906 10.921875 5.503906 10.960938 M 5.527344 11.359375 C 5.527344 11.496094 5.53125 11.554688 5.535156 11.484375 C 5.539062 11.417969 5.539062 11.304688 5.535156 11.234375 C 5.53125 11.167969 5.527344 11.222656 5.527344 11.359375 M 4.140625 12.007812 C 4.140625 12.027344 4.199219 12.140625 4.210938 12.140625 C 4.214844 12.140625 4.207031 12.109375 4.1875 12.074219 C 4.152344 12.003906 4.140625 11.988281 4.140625 12.007812 M 5.25 12.273438 L 5.191406 12.324219 L 5.253906 12.28125 C 5.289062 12.257812 5.320312 12.234375 5.320312 12.230469 C 5.320312 12.214844 5.3125 12.21875 5.25 12.273438 M 4.378906 12.328125 C 4.378906 12.34375 4.503906 12.402344 4.511719 12.394531 C 4.515625 12.390625 4.488281 12.371094 4.449219 12.355469 C 4.410156 12.335938 4.378906 12.324219 4.378906 12.328125 M 4.714844 12.433594 C 4.738281 12.4375 4.78125 12.4375 4.804688 12.433594 C 4.828125 12.429688 4.808594 12.425781 4.761719 12.425781 C 4.710938 12.425781 4.691406 12.429688 4.714844 12.433594 M 2.640625 12.6875 C 2.640625 12.710938 2.699219 12.820312 2.710938 12.820312 C 2.714844 12.820312 2.707031 12.789062 2.6875 12.753906 C 2.652344 12.683594 2.640625 12.667969 2.640625 12.6875 M 2.921875 13.105469 C 2.957031 13.148438 3.027344 13.210938 3.070312 13.246094 C 3.164062 13.316406 3.136719 13.289062 2.96875 13.140625 C 2.890625 13.066406 2.875 13.058594 2.921875 13.105469 M 6.46875 13.054688 C 6.476562 13.0625 6.445312 13.105469 6.40625 13.148438 L 6.328125 13.230469 L 6.414062 13.152344 C 6.488281 13.082031 6.507812 13.039062 6.464844 13.039062 C 6.457031 13.039062 6.460938 13.046875 6.46875 13.054688 M 16.019531 13.121094 C 16 13.179688 16.003906 13.226562 16.023438 13.195312 C 16.035156 13.175781 16.039062 13.148438 16.03125 13.132812 C 16.027344 13.121094 16.023438 13.113281 16.019531 13.121094 M 6.28125 13.25 C 6.265625 13.265625 6.25 13.277344 6.242188 13.269531 C 6.234375 13.265625 6.214844 13.28125 6.203125 13.304688 C 6.175781 13.34375 6.179688 13.34375 6.238281 13.300781 C 6.269531 13.277344 6.304688 13.25 6.3125 13.238281 C 6.328125 13.210938 6.308594 13.214844 6.28125 13.25 M 14.539062 13.226562 C 14.539062 13.25 14.597656 13.359375 14.609375 13.359375 C 14.617188 13.359375 14.605469 13.332031 14.589844 13.296875 C 14.550781 13.222656 14.539062 13.207031 14.539062 13.226562 M 9.6875 13.339844 C 9.664062 13.386719 9.652344 13.414062 9.660156 13.410156 C 9.683594 13.394531 9.746094 13.277344 9.734375 13.269531 C 9.734375 13.265625 9.710938 13.296875 9.6875 13.339844 M 14.699219 13.46875 C 14.75 13.519531 14.808594 13.574219 14.828125 13.585938 C 14.851562 13.597656 14.867188 13.601562 14.859375 13.597656 C 14.855469 13.589844 14.796875 13.539062 14.730469 13.480469 L 14.609375 13.371094 L 14.699219 13.46875 M 5.960938 13.449219 C 5.910156 13.476562 5.878906 13.5 5.886719 13.5 C 5.90625 13.5 6.058594 13.421875 6.058594 13.410156 C 6.058594 13.394531 6.0625 13.394531 5.960938 13.449219 M 8.640625 13.589844 C 8.640625 13.601562 8.761719 13.664062 8.773438 13.65625 C 8.777344 13.652344 8.75 13.632812 8.710938 13.613281 C 8.671875 13.59375 8.640625 13.585938 8.640625 13.589844 M 5.03125 13.679688 C 4.976562 13.695312 4.976562 13.695312 5.054688 13.699219 C 5.140625 13.699219 5.164062 13.691406 5.113281 13.675781 C 5.101562 13.671875 5.0625 13.671875 5.03125 13.679688 M 4.316406 13.695312 C 4.339844 13.699219 4.375 13.699219 4.394531 13.695312 C 4.414062 13.6875 4.394531 13.683594 4.351562 13.683594 C 4.304688 13.683594 4.289062 13.6875 4.316406 13.695312 M 4.660156 13.703125 C 4.554688 13.714844 4.554688 13.714844 4.703125 13.714844 C 4.855469 13.71875 4.902344 13.710938 4.816406 13.699219 C 4.789062 13.691406 4.71875 13.695312 4.660156 13.703125 M 9.023438 13.714844 C 9.042969 13.71875 9.074219 13.71875 9.09375 13.714844 C 9.113281 13.707031 9.097656 13.703125 9.058594 13.703125 C 9.023438 13.703125 9.003906 13.707031 9.023438 13.714844 M 11.34375 13.714844 C 11.363281 13.71875 11.394531 13.71875 11.414062 13.714844 C 11.433594 13.707031 11.417969 13.703125 11.378906 13.703125 C 11.339844 13.703125 11.324219 13.707031 11.34375 13.714844 M 15.234375 13.714844 C 15.261719 13.71875 15.296875 13.71875 15.316406 13.714844 C 15.335938 13.707031 15.3125 13.703125 15.269531 13.703125 C 15.226562 13.707031 15.210938 13.710938 15.234375 13.714844 M 8.417969 15.273438 C 8.398438 15.328125 8.394531 16.289062 8.414062 16.363281 C 8.425781 16.398438 11.84375 16.421875 11.976562 16.386719 L 12.019531 16.375 L 12.019531 15.21875 L 8.4375 15.21875 L 8.417969 15.273438 "/>
<path style=" stroke:none;fill-rule:evenodd;fill:rgb(36.078431%,36.078431%,36.078431%);fill-opacity:1;" d="M 4.519531 3.605469 C 4.515625 3.609375 4.457031 3.621094 4.390625 3.628906 C 4.121094 3.65625 4.066406 3.667969 3.839844 3.734375 C 3.335938 3.882812 2.933594 4.226562 2.730469 4.683594 C 2.703125 4.75 2.679688 4.800781 2.679688 4.804688 C 2.683594 4.808594 2.671875 4.835938 2.664062 4.863281 C 2.449219 5.421875 2.449219 6.386719 2.660156 7.011719 C 2.761719 7.3125 3.070312 7.890625 3.140625 7.917969 C 3.152344 7.921875 3.160156 7.933594 3.160156 7.945312 C 3.160156 7.960938 3.230469 8.0625 3.332031 8.179688 C 3.5625 8.453125 3.738281 8.640625 4.203125 9.109375 C 5.410156 10.332031 5.527344 10.53125 5.53125 11.339844 C 5.53125 12.152344 5.335938 12.429688 4.769531 12.429688 C 4.222656 12.429688 4.066406 12.164062 4.0625 11.230469 C 4.058594 10.558594 4.011719 10.261719 3.914062 10.261719 C 3.90625 10.261719 3.898438 10.246094 3.898438 10.230469 C 3.898438 10.1875 3.742188 10.0625 3.601562 9.992188 C 3.222656 9.8125 2.710938 10.007812 2.558594 10.394531 C 2.484375 10.570312 2.484375 12.109375 2.554688 12.378906 C 2.605469 12.578125 2.75 12.878906 2.839844 12.980469 C 2.871094 13.015625 2.898438 13.054688 2.898438 13.0625 C 2.898438 13.128906 3.472656 13.5 3.621094 13.527344 C 3.636719 13.53125 3.671875 13.542969 3.703125 13.554688 C 3.730469 13.566406 3.78125 13.582031 3.8125 13.585938 C 3.84375 13.59375 3.929688 13.613281 4.003906 13.628906 C 4.285156 13.691406 4.804688 13.710938 5.121094 13.671875 C 5.421875 13.632812 5.554688 13.601562 5.773438 13.523438 C 5.945312 13.460938 6.21875 13.3125 6.21875 13.277344 C 6.21875 13.269531 6.230469 13.261719 6.246094 13.261719 C 6.28125 13.261719 6.601562 12.925781 6.601562 12.886719 C 6.601562 12.871094 6.609375 12.859375 6.621094 12.859375 C 6.636719 12.859375 6.816406 12.519531 6.828125 12.460938 C 6.832031 12.445312 6.839844 12.414062 6.847656 12.398438 C 6.855469 12.378906 6.863281 12.351562 6.867188 12.335938 C 6.871094 12.320312 6.875 12.300781 6.882812 12.289062 C 6.898438 12.265625 6.957031 11.996094 6.96875 11.890625 C 7.003906 11.609375 7.011719 11.511719 7.011719 11.171875 C 7.011719 10.84375 6.992188 10.515625 6.96875 10.480469 C 6.964844 10.472656 6.957031 10.429688 6.949219 10.378906 C 6.933594 10.265625 6.847656 9.972656 6.800781 9.878906 C 6.78125 9.839844 6.746094 9.765625 6.71875 9.710938 C 6.613281 9.496094 6.28125 9.035156 6.050781 8.78125 C 6.007812 8.734375 5.921875 8.640625 5.859375 8.574219 C 5.800781 8.507812 5.664062 8.359375 5.558594 8.25 C 5.453125 8.140625 5.289062 7.964844 5.191406 7.859375 C 5.09375 7.753906 4.988281 7.644531 4.957031 7.609375 C 4.867188 7.515625 4.734375 7.359375 4.609375 7.199219 C 4.542969 7.117188 4.484375 7.046875 4.476562 7.042969 C 4.46875 7.039062 4.460938 7.027344 4.460938 7.019531 C 4.460938 7.003906 4.347656 6.824219 4.320312 6.800781 C 4.285156 6.769531 4.136719 6.40625 4.101562 6.28125 C 4.0625 6.132812 4.050781 5.535156 4.085938 5.40625 C 4.207031 4.953125 4.554688 4.757812 5.007812 4.886719 C 5.339844 4.984375 5.421875 5.183594 5.421875 5.898438 C 5.417969 6.578125 5.449219 6.710938 5.652344 6.914062 C 5.9375 7.203125 6.402344 7.203125 6.6875 6.914062 C 6.785156 6.816406 6.878906 6.679688 6.847656 6.679688 C 6.839844 6.679688 6.847656 6.664062 6.863281 6.648438 C 6.902344 6.601562 6.902344 5.035156 6.863281 4.898438 C 6.851562 4.851562 6.835938 4.792969 6.828125 4.769531 C 6.808594 4.664062 6.679688 4.378906 6.65625 4.378906 C 6.648438 4.378906 6.640625 4.371094 6.640625 4.359375 C 6.640625 4.160156 5.910156 3.746094 5.386719 3.648438 C 5.21875 3.617188 4.539062 3.585938 4.519531 3.605469 M 8.886719 3.621094 C 8.636719 3.671875 8.40625 3.871094 8.347656 4.089844 C 8.335938 4.121094 8.332031 6.179688 8.328125 8.660156 L 8.328125 13.171875 L 8.386719 13.28125 C 8.683594 13.847656 9.507812 13.816406 9.742188 13.230469 L 9.789062 13.109375 L 9.796875 9.152344 C 9.800781 4.734375 9.789062 5.039062 9.9375 4.90625 C 10.117188 4.746094 10.445312 4.746094 10.550781 4.90625 C 10.632812 5.03125 10.628906 4.945312 10.640625 9.121094 L 10.648438 13.148438 L 10.703125 13.261719 C 10.914062 13.714844 11.492188 13.835938 11.859375 13.503906 C 11.945312 13.429688 12.023438 13.324219 12.03125 13.28125 C 12.03125 13.273438 12.042969 13.25 12.054688 13.226562 C 12.117188 13.113281 12.121094 12.839844 12.113281 8.800781 C 12.109375 4.320312 12.117188 4.582031 11.988281 4.332031 C 11.960938 4.28125 11.941406 4.226562 11.941406 4.214844 C 11.941406 4.0625 11.472656 3.691406 11.230469 3.652344 C 11.195312 3.648438 11.121094 3.632812 11.0625 3.621094 C 10.78125 3.566406 10.058594 3.691406 10.058594 3.796875 C 10.058594 3.804688 10.03125 3.824219 10 3.835938 C 9.964844 3.851562 9.886719 3.914062 9.820312 3.972656 C 9.699219 4.085938 9.683594 4.085938 9.652344 3.984375 C 9.628906 3.910156 9.457031 3.738281 9.359375 3.691406 C 9.203125 3.609375 9.050781 3.589844 8.886719 3.621094 M 13.539062 3.613281 C 13.03125 3.703125 12.828125 4.371094 13.195312 4.738281 C 13.378906 4.921875 13.445312 4.9375 14.039062 4.941406 L 14.511719 4.941406 L 14.511719 13.128906 L 14.574219 13.261719 C 14.722656 13.566406 15.097656 13.753906 15.398438 13.679688 C 15.449219 13.667969 15.503906 13.65625 15.523438 13.652344 C 15.710938 13.605469 15.96875 13.347656 16.011719 13.160156 C 16.015625 13.136719 16.027344 13.101562 16.035156 13.074219 C 16.042969 13.050781 16.054688 11.210938 16.058594 8.988281 L 16.070312 4.949219 L 16.550781 4.941406 C 17.035156 4.929688 17.21875 4.894531 17.21875 4.816406 C 17.21875 4.808594 17.234375 4.800781 17.25 4.800781 C 17.339844 4.800781 17.480469 4.519531 17.496094 4.308594 C 17.507812 4.070312 17.339844 3.71875 17.207031 3.71875 C 17.191406 3.71875 17.179688 3.710938 17.179688 3.699219 C 17.179688 3.691406 17.121094 3.664062 17.046875 3.640625 C 16.921875 3.601562 13.746094 3.578125 13.539062 3.613281 "/>
<path style=" stroke:none;fill-rule:evenodd;fill:rgb(89.411765%,10.980392%,10.980392%);fill-opacity:1;" d="M 2.53125 15.25 C 2.460938 15.320312 2.457031 16.28125 2.527344 16.359375 L 2.566406 16.398438 L 8.410156 16.398438 L 8.40625 15.835938 C 8.402344 15.453125 8.410156 15.265625 8.421875 15.246094 C 8.457031 15.203125 2.574219 15.207031 2.53125 15.25 "/>
<path style=" stroke:none;fill-rule:evenodd;fill:rgb(48.627451%,48.627451%,34.509804%);fill-opacity:1;" d="M 17.261719 3.746094 C 17.261719 3.75 17.289062 3.777344 17.324219 3.8125 L 17.390625 3.871094 L 17.332031 3.804688 C 17.277344 3.746094 17.261719 3.730469 17.261719 3.746094 M 9.519531 3.808594 C 9.546875 3.84375 9.570312 3.875 9.574219 3.878906 C 9.578125 3.882812 9.585938 3.882812 9.589844 3.875 C 9.59375 3.871094 9.570312 3.839844 9.535156 3.808594 L 9.46875 3.75 L 9.519531 3.808594 M 9.769531 4 C 9.738281 4.03125 9.703125 4.054688 9.695312 4.046875 C 9.683594 4.039062 9.679688 4.042969 9.6875 4.058594 C 9.703125 4.078125 9.839844 3.976562 9.839844 3.945312 C 9.839844 3.929688 9.824219 3.945312 9.769531 4 M 8.308594 8.640625 C 8.308594 11.054688 8.3125 12.042969 8.316406 10.835938 C 8.316406 9.628906 8.316406 7.652344 8.316406 6.445312 C 8.3125 5.238281 8.308594 6.226562 8.308594 8.640625 M 10.214844 4.792969 C 10.238281 4.800781 10.277344 4.796875 10.296875 4.792969 C 10.3125 4.789062 10.292969 4.785156 10.25 4.785156 C 10.207031 4.785156 10.191406 4.789062 10.214844 4.792969 M 13.867188 4.953125 C 13.984375 4.957031 14.175781 4.957031 14.285156 4.953125 C 14.398438 4.953125 14.300781 4.949219 14.070312 4.949219 C 13.839844 4.949219 13.746094 4.953125 13.867188 4.953125 M 16.265625 4.953125 C 16.371094 4.957031 16.546875 4.957031 16.65625 4.953125 C 16.761719 4.953125 16.675781 4.949219 16.460938 4.949219 C 16.246094 4.949219 16.15625 4.953125 16.265625 4.953125 M 10.628906 9.078125 C 10.628906 11.230469 10.632812 12.109375 10.636719 11.035156 C 10.636719 9.960938 10.636719 8.199219 10.636719 7.125 C 10.632812 6.050781 10.628906 6.929688 10.628906 9.078125 M 6.910156 5.851562 C 6.910156 6.203125 6.910156 6.34375 6.914062 6.164062 C 6.917969 5.984375 6.917969 5.695312 6.914062 5.523438 C 6.910156 5.351562 6.910156 5.496094 6.910156 5.851562 M 6.6875 6.914062 C 6.660156 6.9375 6.648438 6.960938 6.65625 6.960938 C 6.675781 6.960938 6.75 6.882812 6.738281 6.875 C 6.734375 6.871094 6.710938 6.890625 6.6875 6.914062 M 5.429688 8.121094 C 5.484375 8.175781 5.53125 8.21875 5.539062 8.21875 C 5.542969 8.21875 5.503906 8.175781 5.449219 8.121094 C 5.394531 8.066406 5.347656 8.019531 5.339844 8.019531 C 5.335938 8.019531 5.375 8.066406 5.429688 8.121094 M 5.738281 8.445312 C 5.738281 8.449219 5.769531 8.480469 5.804688 8.511719 L 5.871094 8.570312 L 5.8125 8.503906 C 5.757812 8.445312 5.738281 8.429688 5.738281 8.445312 M 3.691406 8.601562 C 3.734375 8.644531 3.773438 8.679688 3.777344 8.679688 C 3.785156 8.679688 3.753906 8.644531 3.710938 8.601562 C 3.667969 8.554688 3.628906 8.519531 3.621094 8.519531 C 3.617188 8.519531 3.648438 8.554688 3.691406 8.601562 M 4.691406 9.621094 C 4.734375 9.664062 4.773438 9.699219 4.777344 9.699219 C 4.792969 9.699219 4.648438 9.542969 4.632812 9.542969 C 4.621094 9.539062 4.648438 9.574219 4.691406 9.621094 M 6.402344 13.121094 C 6.355469 13.167969 6.320312 13.207031 6.324219 13.210938 C 6.328125 13.214844 6.371094 13.179688 6.421875 13.128906 C 6.53125 13.019531 6.519531 13.011719 6.402344 13.121094 M 9.570312 13.484375 L 9.511719 13.550781 L 9.574219 13.492188 C 9.636719 13.4375 9.648438 13.421875 9.632812 13.421875 C 9.628906 13.421875 9.601562 13.449219 9.570312 13.484375 "/>
</g>
</svg>
