<svg id="svg" version="1.1" xmlns="http://www.w3.org/2000/svg" xmlns:xlink="http://www.w3.org/1999/xlink" width="400" height="400" viewBox="0, 0, 400,400"><g id="svgg"><path id="path0" d="M240.312 316.200 L 240.200 328.000 294.438 328.000 L 348.676 328.000 349.438 327.159 C 350.204 326.313,350.858 309.080,350.221 306.539 C 349.645 304.248,353.608 304.400,294.583 304.400 L 240.423 304.400 240.312 316.200 " stroke="none" fill="#0494d4" fill-rule="evenodd"></path><path id="path1" d="M266.576 73.422 C 265.822 74.027,265.824 74.033,266.647 73.636 C 267.113 73.412,267.608 73.342,267.747 73.481 C 267.886 73.620,268.000 73.523,268.000 73.267 C 268.000 72.627,267.501 72.682,266.576 73.422 M171.722 74.629 L 170.600 75.658 171.900 74.754 C 172.615 74.257,173.200 73.793,173.200 73.725 C 173.200 73.409,172.758 73.680,171.722 74.629 M188.400 74.088 C 188.400 74.166,189.255 74.933,190.300 75.792 C 191.345 76.651,191.840 76.940,191.400 76.434 C 190.622 75.539,188.400 73.802,188.400 74.088 M199.324 76.591 C 198.188 77.356,197.136 78.179,196.987 78.420 C 196.838 78.661,197.608 78.218,198.698 77.435 C 199.787 76.653,200.774 76.107,200.890 76.223 C 201.006 76.339,201.208 76.157,201.338 75.817 C 201.648 75.008,201.707 74.986,199.324 76.591 M231.800 75.865 C 234.013 78.050,236.810 80.372,235.400 78.855 C 234.520 77.908,233.260 76.759,232.600 76.302 C 231.940 75.845,231.580 75.648,231.800 75.865 M121.600 77.379 C 121.600 77.489,122.140 77.859,122.800 78.200 C 123.460 78.541,124.000 78.731,124.000 78.621 C 124.000 78.511,123.460 78.141,122.800 77.800 C 122.140 77.459,121.600 77.269,121.600 77.379 M348.428 78.600 C 348.428 78.820,348.686 79.450,349.000 80.000 C 349.314 80.550,349.572 80.820,349.572 80.600 C 349.572 80.380,349.314 79.750,349.000 79.200 C 348.686 78.650,348.428 78.380,348.428 78.600 M65.322 79.829 L 64.200 80.858 65.500 79.954 C 66.215 79.457,66.800 78.993,66.800 78.925 C 66.800 78.609,66.358 78.880,65.322 79.829 M195.227 79.771 C 194.725 80.305,194.064 80.646,193.757 80.528 C 193.451 80.411,193.200 80.404,193.200 80.514 C 193.200 81.262,194.494 80.945,195.429 79.970 C 196.045 79.326,196.457 78.800,196.345 78.800 C 196.232 78.800,195.729 79.237,195.227 79.771 M127.000 80.662 C 129.611 83.219,132.396 85.560,130.800 83.856 C 129.810 82.800,128.460 81.560,127.800 81.103 C 127.140 80.645,126.780 80.447,127.000 80.662 M61.188 83.500 L 58.600 86.200 61.300 83.612 C 62.785 82.188,64.000 80.973,64.000 80.912 C 64.000 80.617,63.593 80.992,61.188 83.500 M238.574 83.549 C 238.901 84.181,239.055 84.811,238.917 84.949 C 238.779 85.087,238.887 85.200,239.157 85.200 C 239.427 85.200,239.536 85.380,239.400 85.600 C 239.264 85.820,239.343 86.000,239.576 86.000 C 239.809 86.000,240.000 85.903,240.000 85.784 C 240.000 85.397,238.389 82.400,238.182 82.400 C 238.070 82.400,238.247 82.917,238.574 83.549 M259.701 85.400 C 259.705 86.280,259.787 86.593,259.883 86.095 C 259.979 85.598,259.975 84.878,259.875 84.495 C 259.775 84.113,259.696 84.520,259.701 85.400 M54.980 92.040 C 54.411 93.162,54.013 94.147,54.095 94.229 C 54.177 94.311,54.727 93.393,55.318 92.189 C 55.908 90.985,56.306 90.000,56.202 90.000 C 56.098 90.000,55.548 90.918,54.980 92.040 M260.801 91.033 C 260.803 91.482,262.313 94.000,262.581 94.000 C 262.686 94.000,262.387 93.325,261.914 92.500 C 260.856 90.652,260.800 90.577,260.801 91.033 M346.378 95.100 L 345.000 96.600 346.500 95.222 C 347.896 93.938,348.184 93.600,347.878 93.600 C 347.812 93.600,347.137 94.275,346.378 95.100 M263.673 95.407 C 264.043 95.843,264.943 96.530,265.673 96.933 L 267.000 97.667 266.000 96.842 C 265.450 96.389,264.854 96.014,264.676 96.009 C 264.498 96.004,264.482 95.775,264.641 95.500 C 264.799 95.225,264.781 95.133,264.601 95.297 C 264.421 95.460,263.987 95.373,263.637 95.103 C 263.117 94.703,263.123 94.759,263.673 95.407 M344.400 96.321 C 344.400 96.570,343.905 97.043,343.300 97.371 C 342.695 97.699,342.405 97.975,342.656 97.984 C 343.353 98.008,345.040 96.509,344.700 96.168 C 344.535 96.002,344.400 96.071,344.400 96.321 M86.276 100.100 C 85.030 101.333,85.025 101.349,86.181 100.403 C 86.852 99.855,87.571 99.270,87.780 99.103 C 87.989 98.936,88.031 98.800,87.874 98.800 C 87.717 98.800,86.998 99.385,86.276 100.100 M103.200 99.325 C 103.200 99.394,103.785 99.979,104.500 100.625 L 105.800 101.800 104.625 100.500 C 103.530 99.288,103.200 99.016,103.200 99.325 M289.796 180.400 C 289.796 225.170,289.843 243.485,289.900 221.100 C 289.957 198.715,289.957 162.085,289.900 139.700 C 289.843 117.315,289.796 135.630,289.796 180.400 M321.396 179.000 C 321.396 223.000,321.443 240.941,321.500 218.868 C 321.557 196.796,321.557 160.796,321.500 138.868 C 321.443 116.941,321.396 135.000,321.396 179.000 M137.606 103.100 C 137.624 103.977,138.388 104.559,138.394 103.700 C 138.397 103.205,138.220 102.800,138.000 102.800 C 137.780 102.800,137.603 102.935,137.606 103.100 M195.912 105.218 C 195.814 105.887,195.883 106.528,196.067 106.641 C 196.250 106.755,196.400 106.207,196.400 105.424 C 196.400 103.679,196.153 103.575,195.912 105.218 M108.093 109.200 C 108.093 109.970,108.175 110.285,108.276 109.900 C 108.376 109.515,108.376 108.885,108.276 108.500 C 108.175 108.115,108.093 108.430,108.093 109.200 M49.763 119.200 C 49.763 122.830,49.823 124.315,49.898 122.500 C 49.972 120.685,49.972 117.715,49.898 115.900 C 49.823 114.085,49.763 115.570,49.763 119.200 M81.346 116.600 C 81.347 118.800,81.414 119.649,81.495 118.487 C 81.576 117.324,81.576 115.524,81.493 114.487 C 81.411 113.449,81.345 114.400,81.346 116.600 M84.000 130.953 C 84.000 131.382,85.190 133.600,85.421 133.600 C 85.531 133.600,85.323 133.015,84.959 132.300 C 84.217 130.840,84.000 130.536,84.000 130.953 M54.428 144.600 C 54.428 144.820,54.686 145.450,55.000 146.000 C 55.314 146.550,55.572 146.820,55.572 146.600 C 55.572 146.380,55.314 145.750,55.000 145.200 C 54.686 144.650,54.428 144.380,54.428 144.600 M57.800 151.600 C 58.141 152.260,58.511 152.800,58.621 152.800 C 58.731 152.800,58.541 152.260,58.200 151.600 C 57.859 150.940,57.489 150.400,57.379 150.400 C 57.269 150.400,57.459 150.940,57.800 151.600 M100.200 153.200 C 101.283 154.300,102.260 155.200,102.370 155.200 C 102.480 155.200,101.683 154.300,100.600 153.200 C 99.517 152.100,98.540 151.200,98.430 151.200 C 98.320 151.200,99.117 152.100,100.200 153.200 M106.800 160.200 C 108.881 162.290,110.674 164.000,110.784 164.000 C 110.894 164.000,109.281 162.290,107.200 160.200 C 105.119 158.110,103.326 156.400,103.216 156.400 C 103.106 156.400,104.719 158.110,106.800 160.200 M66.800 164.525 C 66.800 164.594,67.385 165.179,68.100 165.825 L 69.400 167.000 68.225 165.700 C 67.130 164.488,66.800 164.216,66.800 164.525 M110.445 164.500 C 110.543 164.555,112.148 166.040,114.012 167.800 L 117.400 171.000 114.209 167.700 C 112.455 165.885,110.850 164.400,110.643 164.400 C 110.436 164.400,110.347 164.445,110.445 164.500 M69.200 167.325 C 69.200 167.394,69.785 167.979,70.500 168.625 L 71.800 169.800 70.625 168.500 C 69.530 167.288,69.200 167.016,69.200 167.325 M82.200 180.800 C 87.697 186.300,92.284 190.800,92.394 190.800 C 92.504 190.800,88.097 186.300,82.600 180.800 C 77.103 175.300,72.516 170.800,72.406 170.800 C 72.296 170.800,76.703 175.300,82.200 180.800 M116.839 171.300 C 116.935 171.355,117.820 172.120,118.806 173.000 L 120.600 174.600 119.019 172.900 C 118.149 171.965,117.264 171.200,117.052 171.200 C 116.840 171.200,116.744 171.245,116.839 171.300 M120.800 175.325 C 120.800 175.394,121.385 175.979,122.100 176.625 L 123.400 177.800 122.225 176.500 C 121.130 175.288,120.800 175.016,120.800 175.325 M95.182 194.200 C 99.445 198.797,100.444 199.755,98.105 197.000 C 96.984 195.680,95.200 193.790,94.141 192.800 C 93.081 191.810,93.550 192.440,95.182 194.200 M134.682 194.589 C 135.273 195.793,135.823 196.711,135.905 196.629 C 136.084 196.449,134.067 192.400,133.798 192.400 C 133.694 192.400,134.092 193.385,134.682 194.589 M63.750 198.284 C 64.036 198.570,67.257 198.468,67.567 198.164 C 67.658 198.074,66.773 198.000,65.600 198.000 C 64.427 198.000,63.594 198.128,63.750 198.284 M57.376 200.222 C 56.622 200.827,56.624 200.833,57.447 200.436 C 57.913 200.212,58.408 200.142,58.547 200.281 C 58.686 200.420,58.800 200.323,58.800 200.067 C 58.800 199.427,58.301 199.482,57.376 200.222 M76.600 202.800 C 77.459 203.680,78.252 204.400,78.362 204.400 C 78.472 204.400,77.859 203.680,77.000 202.800 C 76.141 201.920,75.348 201.200,75.238 201.200 C 75.128 201.200,75.741 201.920,76.600 202.800 M53.329 203.500 C 52.000 205.154,50.647 207.580,50.908 207.841 C 51.000 207.933,51.406 207.273,51.811 206.375 C 52.216 205.477,52.989 204.395,53.528 203.971 C 54.067 203.547,54.372 203.200,54.205 203.200 C 54.038 203.200,54.126 202.930,54.400 202.600 C 54.674 202.270,54.816 202.000,54.716 202.000 C 54.616 202.000,53.992 202.675,53.329 203.500 M139.074 207.500 C 138.978 207.665,139.045 208.160,139.222 208.600 C 139.503 209.298,139.547 209.260,139.572 208.300 C 139.600 207.215,139.412 206.914,139.074 207.500 M49.782 226.600 C 49.782 235.180,49.835 238.633,49.900 234.274 C 49.964 229.914,49.964 222.894,49.899 218.674 C 49.835 214.453,49.782 218.020,49.782 226.600 M81.375 222.800 C 81.375 228.630,81.431 231.015,81.499 228.100 C 81.567 225.185,81.567 220.415,81.499 217.500 C 81.431 214.585,81.375 216.970,81.375 222.800 M110.093 219.200 C 110.093 219.970,110.175 220.285,110.276 219.900 C 110.376 219.515,110.376 218.885,110.276 218.500 C 110.175 218.115,110.093 218.430,110.093 219.200 M110.554 227.200 C 110.554 229.950,110.618 231.075,110.696 229.700 C 110.774 228.325,110.774 226.075,110.696 224.700 C 110.618 223.325,110.554 224.450,110.554 227.200 M82.800 240.153 C 82.800 240.582,83.990 242.800,84.221 242.800 C 84.331 242.800,84.123 242.215,83.759 241.500 C 83.017 240.040,82.800 239.736,82.800 240.153 M105.000 245.435 L 103.800 246.466 105.100 245.606 C 105.815 245.133,106.400 244.668,106.400 244.573 C 106.400 244.273,106.231 244.378,105.000 245.435 M87.600 246.596 C 87.600 246.870,90.049 248.084,90.232 247.901 C 90.319 247.814,89.762 247.444,88.995 247.078 C 88.228 246.712,87.600 246.495,87.600 246.596 M94.300 248.682 C 94.795 248.778,95.605 248.778,96.100 248.682 C 96.595 248.587,96.190 248.509,95.200 248.509 C 94.210 248.509,93.805 248.587,94.300 248.682 M52.800 253.753 C 52.800 254.182,53.990 256.400,54.221 256.400 C 54.331 256.400,54.123 255.815,53.759 255.100 C 53.017 253.640,52.800 253.336,52.800 253.753 M58.400 262.145 C 59.170 262.984,60.520 264.226,61.400 264.904 C 63.270 266.346,62.726 265.767,59.400 262.777 C 57.830 261.365,57.484 261.147,58.400 262.145 M129.341 261.075 C 129.493 261.226,128.938 262.081,128.108 262.975 L 126.600 264.600 128.283 263.035 C 129.742 261.679,130.145 260.800,129.310 260.800 C 129.176 260.800,129.190 260.924,129.341 261.075 M320.402 262.400 C 320.033 263.604,320.052 264.529,320.433 263.885 C 320.666 263.492,320.768 262.952,320.660 262.685 C 320.552 262.418,320.436 262.290,320.402 262.400 M125.604 264.996 C 125.332 265.323,124.986 265.515,124.835 265.421 C 124.684 265.328,124.328 265.624,124.043 266.079 C 123.539 266.888,123.555 266.887,124.751 266.035 C 125.425 265.555,126.082 264.991,126.212 264.781 C 126.581 264.184,126.152 264.335,125.604 264.996 M290.800 264.553 C 290.800 264.982,291.990 267.200,292.221 267.200 C 292.331 267.200,292.123 266.615,291.759 265.900 C 291.017 264.440,290.800 264.136,290.800 264.553 M193.725 266.832 C 193.250 267.700,193.029 268.306,193.234 268.179 C 193.677 267.905,194.918 265.584,194.724 265.391 C 194.650 265.316,194.200 265.965,193.725 266.832 M294.000 269.343 C 294.990 270.398,296.160 271.452,296.600 271.685 C 297.040 271.918,297.310 272.028,297.200 271.931 C 297.090 271.833,295.920 270.779,294.600 269.589 L 292.200 267.425 294.000 269.343 M119.200 269.000 C 118.210 269.530,117.542 269.972,117.716 269.982 C 118.141 270.006,121.200 268.434,121.200 268.192 C 121.200 267.927,121.217 267.920,119.200 269.000 M172.800 271.796 C 172.800 272.070,175.249 273.284,175.432 273.101 C 175.519 273.014,174.962 272.644,174.195 272.278 C 173.428 271.912,172.800 271.695,172.800 271.796 M100.600 273.627 C 99.499 273.882,99.540 273.909,101.100 273.953 C 102.796 274.000,103.247 273.836,102.300 273.518 C 102.025 273.425,101.260 273.475,100.600 273.627 M86.305 273.883 C 86.802 273.979,87.522 273.975,87.905 273.875 C 88.287 273.775,87.880 273.696,87.000 273.701 C 86.120 273.705,85.807 273.787,86.305 273.883 M93.200 274.035 C 91.075 274.262,91.105 274.272,94.100 274.335 C 97.147 274.399,98.073 274.236,96.300 273.947 C 95.805 273.866,94.410 273.906,93.200 274.035 M180.500 274.276 C 180.885 274.376,181.515 274.376,181.900 274.276 C 182.285 274.175,181.970 274.093,181.200 274.093 C 180.430 274.093,180.115 274.175,180.500 274.276 M226.900 274.276 C 227.285 274.376,227.915 274.376,228.300 274.276 C 228.685 274.175,228.370 274.093,227.600 274.093 C 226.830 274.093,226.515 274.175,226.900 274.276 M304.705 274.283 C 305.202 274.379,305.922 274.375,306.305 274.275 C 306.687 274.175,306.280 274.096,305.400 274.101 C 304.520 274.105,304.207 274.187,304.705 274.283 M168.367 305.487 C 167.960 306.557,167.903 325.745,168.303 327.271 C 168.494 328.004,236.837 328.461,239.500 327.748 L 240.400 327.507 240.400 315.953 L 240.400 304.400 204.590 304.400 L 168.780 304.400 168.367 305.487 " stroke="none" fill="#54247c" fill-rule="evenodd"></path><path id="path2" d="M90.400 72.114 C 90.290 72.226,89.120 72.430,87.800 72.566 C 82.410 73.121,81.339 73.325,76.800 74.663 C 66.746 77.627,58.668 84.564,54.626 93.703 C 54.066 94.968,53.619 96.048,53.632 96.102 C 53.645 96.156,53.470 96.689,53.243 97.286 C 48.996 108.458,48.976 127.704,53.200 140.199 C 55.244 146.246,61.378 157.774,62.849 158.333 C 63.042 158.407,63.200 158.658,63.200 158.892 C 63.200 159.253,64.648 161.222,66.660 163.600 C 71.285 169.063,74.762 172.779,84.060 182.198 C 108.191 206.637,110.573 210.642,110.586 226.800 C 110.600 243.036,106.750 248.558,95.400 248.583 C 84.454 248.607,81.317 243.313,81.218 224.647 C 81.145 211.134,80.260 205.200,78.317 205.200 C 78.143 205.200,78.000 204.944,78.000 204.631 C 78.000 203.732,74.844 201.218,72.000 199.851 C 64.477 196.233,54.248 200.164,51.141 207.867 C 49.709 211.417,49.675 242.210,51.097 247.600 C 52.142 251.560,55.005 257.601,56.771 259.572 C 57.447 260.327,58.000 261.083,58.000 261.253 C 58.000 262.571,69.479 269.970,72.450 270.567 C 72.752 270.627,73.466 270.869,74.037 271.105 C 74.607 271.340,75.597 271.632,76.237 271.754 C 76.876 271.876,78.617 272.249,80.104 272.583 C 85.682 273.834,96.103 274.232,102.400 273.435 C 108.437 272.671,111.092 272.069,115.478 270.468 C 118.932 269.208,124.400 266.213,124.400 265.582 C 124.400 265.372,124.634 265.200,124.919 265.200 C 125.608 265.200,132.000 258.487,132.000 257.764 C 132.000 257.454,132.172 257.200,132.383 257.200 C 132.759 257.200,136.330 250.360,136.561 249.196 C 136.626 248.868,136.810 248.299,136.970 247.931 C 137.131 247.563,137.298 247.023,137.342 246.731 C 137.386 246.439,137.532 246.020,137.667 245.800 C 137.974 245.297,139.136 239.930,139.399 237.800 C 140.090 232.201,140.200 230.230,140.200 223.400 C 140.200 216.846,139.817 210.280,139.394 209.592 C 139.324 209.477,139.152 208.577,139.012 207.592 C 138.688 205.302,136.933 199.420,136.031 197.600 C 135.649 196.830,134.901 195.301,134.369 194.202 C 132.280 189.894,125.662 180.694,121.017 175.641 C 120.128 174.673,118.410 172.790,117.200 171.455 C 115.990 170.120,113.276 167.221,111.170 165.014 C 109.063 162.806,105.748 159.290,103.803 157.200 C 101.859 155.110,99.764 152.860,99.148 152.200 C 97.372 150.296,94.719 147.158,92.180 143.957 C 90.889 142.331,89.691 140.940,89.517 140.867 C 89.343 140.793,89.200 140.574,89.200 140.378 C 89.200 140.065,86.929 136.521,86.395 136.000 C 85.738 135.360,82.711 128.138,82.036 125.600 C 81.252 122.654,81.029 110.720,81.710 108.149 C 84.122 99.040,91.072 95.129,100.156 97.770 C 106.832 99.711,108.462 103.699,108.423 118.000 C 108.387 131.580,108.986 134.204,113.065 138.305 C 118.774 144.047,128.010 144.042,133.757 138.295 C 135.722 136.330,137.585 133.600,136.961 133.600 C 136.819 133.600,136.949 133.302,137.251 132.938 C 138.010 132.023,138.030 100.732,137.273 98.000 C 136.999 97.010,136.694 95.831,136.594 95.380 C 136.136 93.301,133.610 87.600,133.147 87.600 C 132.956 87.600,132.800 87.413,132.800 87.184 C 132.800 83.171,118.236 74.923,107.733 72.988 C 104.362 72.367,90.819 71.684,90.400 72.114 M177.708 72.422 C 172.737 73.403,168.101 77.435,166.926 81.800 C 166.748 82.460,166.602 123.590,166.601 173.200 L 166.600 263.400 167.751 265.600 C 173.679 276.929,190.122 276.322,194.835 264.600 L 195.800 262.200 195.903 183.079 C 196.018 94.655,195.815 100.771,198.715 98.158 C 202.336 94.897,208.872 94.896,211.008 98.156 C 212.620 100.616,212.584 98.941,212.796 182.400 L 213.000 263.000 214.064 265.270 C 218.284 274.271,229.831 276.691,237.171 270.112 C 238.906 268.557,240.456 266.517,240.597 265.600 C 240.614 265.490,240.850 265.001,241.121 264.514 C 242.359 262.286,242.432 256.802,242.303 176.000 C 242.159 86.380,242.308 91.647,239.782 86.663 C 239.242 85.598,238.800 84.541,238.800 84.314 C 238.800 81.262,229.448 73.847,224.600 73.056 C 223.940 72.948,222.430 72.666,221.245 72.430 C 215.631 71.310,201.200 73.837,201.200 75.940 C 201.200 76.085,200.648 76.449,199.974 76.747 C 199.300 77.046,197.702 78.259,196.422 79.444 C 193.990 81.696,193.642 81.720,193.017 79.684 C 192.572 78.234,189.173 74.799,187.200 73.806 C 184.050 72.220,180.991 71.774,177.708 72.422 M270.800 72.284 C 260.664 74.057,256.580 87.418,263.929 94.767 C 267.617 98.455,268.911 98.766,280.800 98.814 L 290.200 98.853 290.200 180.726 L 290.200 262.600 291.493 265.243 C 294.453 271.293,301.971 275.109,308.000 273.621 C 308.990 273.377,310.094 273.107,310.453 273.021 C 314.225 272.116,319.402 266.915,320.222 263.206 C 320.320 262.763,320.533 261.995,320.695 261.500 C 320.857 261.005,321.082 224.240,321.195 179.800 L 321.400 99.000 331.000 98.796 C 340.679 98.590,344.400 97.903,344.400 96.320 C 344.400 96.144,344.654 96.000,344.964 96.000 C 346.820 96.000,349.630 90.404,349.885 86.200 C 350.176 81.399,346.772 74.400,344.145 74.400 C 343.845 74.400,343.600 74.227,343.600 74.016 C 343.600 73.805,342.411 73.265,340.958 72.816 C 338.465 72.046,274.915 71.564,270.800 72.284 " stroke="none" fill="#5c5c5c" fill-rule="evenodd"></path><path id="path3" d="M50.644 305.013 C 49.219 306.438,49.148 325.598,50.562 327.159 L 51.324 328.000 109.762 328.000 L 168.200 328.000 168.113 316.726 C 168.053 309.051,168.165 305.283,168.462 304.926 C 169.174 304.067,51.503 304.154,50.644 305.013 " stroke="none" fill="#e41c1c" fill-rule="evenodd"></path><path id="path4" d="" stroke="none" fill="#c4587c" fill-rule="evenodd"></path><path id="path5" d="M345.200 74.925 C 345.200 74.994,345.785 75.579,346.500 76.225 L 347.800 77.400 346.625 76.100 C 345.530 74.888,345.200 74.616,345.200 74.925 M190.401 76.200 C 190.951 76.860,191.445 77.475,191.500 77.567 C 191.555 77.658,191.688 77.645,191.796 77.538 C 191.904 77.430,191.409 76.815,190.697 76.171 L 189.403 75.000 190.401 76.200 M195.414 79.986 C 194.789 80.638,194.097 81.060,193.877 80.924 C 193.641 80.778,193.602 80.880,193.783 81.173 C 194.038 81.585,196.800 79.523,196.800 78.922 C 196.800 78.628,196.477 78.876,195.414 79.986 M166.196 172.800 C 166.196 221.090,166.243 240.845,166.300 216.700 C 166.357 192.555,166.357 153.045,166.300 128.900 C 166.243 104.755,166.196 124.510,166.196 172.800 M204.305 95.883 C 204.802 95.979,205.522 95.975,205.905 95.875 C 206.287 95.775,205.880 95.696,205.000 95.701 C 204.120 95.705,203.807 95.787,204.305 95.883 M277.322 99.099 C 279.699 99.170,283.479 99.169,285.722 99.098 C 287.965 99.027,286.020 98.969,281.400 98.969 C 276.780 98.970,274.945 99.028,277.322 99.099 M325.300 99.098 C 327.445 99.170,330.955 99.170,333.100 99.098 C 335.245 99.026,333.490 98.967,329.200 98.967 C 324.910 98.967,323.155 99.026,325.300 99.098 M212.596 181.600 C 212.596 224.610,212.643 242.205,212.700 220.700 C 212.757 199.195,212.757 164.005,212.700 142.500 C 212.643 120.995,212.596 138.590,212.596 181.600 M138.178 117.000 C 138.179 124.040,138.233 126.864,138.299 123.275 C 138.366 119.686,138.366 113.926,138.299 110.475 C 138.233 107.024,138.178 109.960,138.178 117.000 M133.714 138.280 C 133.227 138.786,132.974 139.200,133.152 139.200 C 133.542 139.200,134.998 137.645,134.764 137.477 C 134.674 137.413,134.201 137.774,133.714 138.280 M108.600 162.400 C 109.683 163.500,110.660 164.400,110.770 164.400 C 110.880 164.400,110.083 163.500,109.000 162.400 C 107.917 161.300,106.940 160.400,106.830 160.400 C 106.720 160.400,107.517 161.300,108.600 162.400 M114.800 168.925 C 114.800 168.994,115.385 169.579,116.100 170.225 L 117.400 171.400 116.225 170.100 C 115.130 168.888,114.800 168.616,114.800 168.925 M73.800 172.000 C 74.659 172.880,75.452 173.600,75.562 173.600 C 75.672 173.600,75.059 172.880,74.200 172.000 C 73.341 171.120,72.548 170.400,72.438 170.400 C 72.328 170.400,72.941 171.120,73.800 172.000 M93.800 192.400 C 94.659 193.280,95.437 194.000,95.528 194.000 C 95.865 194.000,92.986 190.866,92.619 190.834 C 92.409 190.815,92.941 191.520,93.800 192.400 M128.073 262.450 C 127.123 263.346,126.414 264.148,126.498 264.231 C 126.582 264.315,127.441 263.577,128.408 262.592 C 130.601 260.357,130.387 260.266,128.073 262.450 M191.375 269.700 L 190.200 271.000 191.500 269.825 C 192.712 268.730,192.984 268.400,192.675 268.400 C 192.606 268.400,192.021 268.985,191.375 269.700 " stroke="none" fill="#7c7c58" fill-rule="evenodd"></path></g></svg>