<?xml version="1.0" encoding="UTF-8"?>
<svg xmlns="http://www.w3.org/2000/svg" xmlns:xlink="http://www.w3.org/1999/xlink" width="20pt" height="20pt" viewBox="0 0 20 20" version="1.1">
<g id="surface1">
<path style=" stroke:none;fill-rule:nonzero;fill:rgb(11.372549%,63.137255%,94.901961%);fill-opacity:1;" d="M 6.179688 18.019531 C 13.730469 18.019531 17.859375 11.765625 17.859375 6.339844 C 17.859375 6.164062 17.859375 5.988281 17.847656 5.8125 C 18.648438 5.230469 19.34375 4.511719 19.894531 3.6875 C 19.144531 4.019531 18.351562 4.234375 17.535156 4.332031 C 18.394531 3.820312 19.035156 3.011719 19.339844 2.0625 C 18.535156 2.539062 17.652344 2.875 16.734375 3.058594 C 15.179688 1.40625 12.582031 1.324219 10.925781 2.878906 C 9.863281 3.882812 9.410156 5.375 9.738281 6.800781 C 6.441406 6.636719 3.367188 5.078125 1.28125 2.511719 C 0.191406 4.386719 0.75 6.789062 2.550781 7.992188 C 1.898438 7.972656 1.261719 7.796875 0.6875 7.476562 C 0.6875 7.496094 0.6875 7.511719 0.6875 7.53125 C 0.691406 9.484375 2.066406 11.167969 3.980469 11.554688 C 3.378906 11.71875 2.742188 11.742188 2.128906 11.625 C 2.667969 13.296875 4.207031 14.441406 5.964844 14.476562 C 4.507812 15.617188 2.714844 16.238281 0.867188 16.234375 C 0.539062 16.234375 0.214844 16.214844 -0.109375 16.175781 C 1.765625 17.378906 3.949219 18.019531 6.179688 18.015625 "/>
</g>
</svg>
